<?xml version="1.0" encoding="utf-8"?>
<!-- Generator: Adobe Illustrator 18.1.0, SVG Export Plug-In . SVG Version: 6.00 Build 0)  -->
<svg version="1.1" baseProfile="tiny" id="Layer_1" xmlns="http://www.w3.org/2000/svg" xmlns:xlink="http://www.w3.org/1999/xlink"
	 x="0px" y="0px" viewBox="0 0 23 23" xml:space="preserve">
<g>
	<path class="stroke" fill="none" stroke="#E7C61E" stroke-width="2" stroke-miterlimit="10" d="M20.5,21.6L2.4,21.5c-0.3,0-0.5-0.2-0.5-0.5L2,1.9
		c0-0.3,0.2-0.5,0.5-0.5l18.2,0.1c0.3,0,0.5,0.2,0.5,0.5L21,21.1C21,21.4,20.8,21.6,20.5,21.6z"/>
	<g>
		<rect class="fill" x="6" y="6.5" fill="#E7C61E" width="3" height="2"/>
		<rect class="fill" x="10" y="6.5" fill="#E7C61E" width="3" height="2"/>
		<rect class="fill" x="14" y="6.5" fill="#E7C61E" width="3" height="2"/>
	</g>
	<g>
		<rect class="fill" x="6" y="10.5" fill="#E7C61E" width="3" height="2"/>
		<rect class="fill" x="10" y="10.5" fill="#E7C61E" width="3" height="2"/>
		<rect class="fill" x="14" y="10.5" fill="#E7C61E" width="3" height="2"/>
	</g>
	<g>
		<rect class="fill" x="6" y="14.5" fill="#E7C61E" width="3" height="2"/>
		<rect class="fill" x="10" y="14.5" fill="#E7C61E" width="3" height="2"/>
		<rect class="fill" x="14" y="14.5" fill="#E7C61E" width="3" height="2"/>
	</g>
</g>
</svg>
